PathFileType	4	(X/Y/Z)	s06c0201.trc
DataRate	CameraRate	NumFrames	NumMarkers	Units	OrigDataRate	OrigDataStartFrame	OrigNumFrames
200	200	4	49	mm	200	0	2000
Frame#	Time	racr			lacr			c7			jug			rlel			rdr			llel			ldr			s2			lic			ric			lasi			rasi			rpsi			lpsi			rgt			lgt			rth1			rth2			rth3			rth4			rlfc			rmfc			rsh1			rsh2			rsh3			rsh4			rlmal			rmmal			rcal			rtoe			rmt5			lth1			lth2			lth4			lth3			llfc			lmfc			llmal			lcal			lmt5			lsh1			lsh2			lsh3			lsh4			ltoe			SBIKE			LBIKE			RBIKE			
		X1	Y1	Z1	X2	Y2	Z2	X3	Y3	Z3	X4	Y4	Z4	X5	Y5	Z5	X6	Y6	Z6	X7	Y7	Z7	X8	Y8	Z8	X9	Y9	Z9	X10	Y10	Z10	X11	Y11	Z11	X12	Y12	Z12	X13	Y13	Z13	X14	Y14	Z14	X15	Y15	Z15	X16	Y16	Z16	X17	Y17	Z17	X18	Y18	Z18	X19	Y19	Z19	X20	Y20	Z20	X21	Y21	Z21	X22	Y22	Z22	X23	Y23	Z23	X24	Y24	Z24	X25	Y25	Z25	X26	Y26	Z26	X27	Y27	Z27	X28	Y28	Z28	X29	Y29	Z29	X30	Y30	Z30	X31	Y31	Z31	X32	Y32	Z32	X33	Y33	Z33	X34	Y34	Z34	X35	Y35	Z35	X36	Y36	Z36	X37	Y37	Z37	X38	Y38	Z38	X39	Y39	Z39	X40	Y40	Z40	X41	Y41	Z41	X42	Y42	Z42	X43	Y43	Z43	X44	Y44	Z44	X45	Y45	Z45	X46	Y46	Z46	X47	Y47	Z47	X48	Y48	Z48	X49	Y49	Z49	
0	0.0000	435.410157	1344.651449	-62.518664	457.100072	1356.000316	-392.180094	436.908743	1435.404464	-224.502588	455.215868	1265.248360	-215.888528	483.054887	1089.699896	17.032678	681.661461	943.777223	-44.606406	486.410842	1095.325925	-476.070918	676.111523	938.314955	-426.996538	-42.733321	1126.810902	-224.668648	140.981694	1100.179693	-390.829713	113.030723	1103.138148	-53.190989	154.950381	1034.633384	-359.089530	139.887779	1054.783125	-82.102281	-8.033388	1167.565315	-195.377412	-9.455326	1161.224091	-259.524338	71.499179	1047.915998	-20.087403	105.251340	1025.088748	-421.180484	176.163063	988.233656	-16.771625	265.860601	974.401832	-20.020088	333.777768	920.448082	-19.793376	277.278753	1005.139036	-40.572399	409.727670	840.390083	-41.799061	413.831740	814.810085	-152.311098	375.078805	721.140367	-18.248726	368.171393	636.065139	-39.404764	321.993530	562.493400	-44.373000	390.836834	633.328507	-71.667528	291.061952	487.787666	-50.651247	324.000086	491.345156	-142.992430	224.031920	474.170038	-100.703095	483.256288	380.642967	-109.499964	387.621363	387.390716	-36.624202	154.524390	912.387125	-430.417543	225.071501	861.650367	-420.819177	251.917092	884.178060	-406.928743	260.738506	780.304954	-412.665529	286.563385	672.693416	-383.668739	285.833758	653.937102	-267.846158	46.048658	393.320010	-384.775354	-23.825709	416.837243	-339.068614	87.753410	252.347203	-406.594130	221.890564	590.382644	-408.761427	184.342083	513.383381	-392.851666	113.637937	461.265317	-398.856101	204.678788	500.138046	-362.369035	154.169465	197.674262	-348.983562	-159.679720	852.048602	-233.511827	-50.434603	79.920662	-419.817393	-50.043104	79.232453	-22.414987	
1	0.0050	435.410751	1344.649652	-62.515177	457.121491	1355.982563	-392.173104	436.893384	1435.407127	-224.504859	455.150352	1265.294775	-215.935075	483.053205	1089.704448	17.023924	681.654736	943.778721	-44.609290	486.402967	1095.348291	-476.055880	676.111437	938.335981	-426.987376	-42.742203	1126.829091	-224.643935	140.967018	1100.193871	-390.778554	113.053845	1103.163596	-53.197466	154.950328	1034.669249	-359.091930	139.917078	1054.817154	-82.117419	-8.032404	1167.575359	-195.349224	-9.449059	1161.236607	-259.505442	71.502757	1047.915375	-20.100964	105.232378	1025.117803	-421.167910	176.183855	988.243879	-16.780869	265.850573	974.409286	-20.056314	333.801525	920.457408	-19.813058	277.284079	1005.148444	-40.583885	409.735716	840.425006	-41.841087	413.821455	814.835955	-152.342871	375.080921	721.154855	-18.277292	368.161231	636.070245	-39.443920	321.986600	562.515148	-44.389486	390.844514	633.345432	-71.678010	291.054276	487.813227	-50.655644	324.001378	491.361368	-143.013333	224.018698	474.209470	-100.721325	483.241140	380.649955	-109.518568	387.602063	387.424007	-36.612256	154.526191	912.405984	-430.417676	225.062150	861.701497	-420.827062	251.916161	884.218783	-406.921299	260.730582	780.361783	-412.671158	286.549740	672.740094	-383.670185	285.881427	653.928137	-267.845431	46.095417	393.310783	-384.791864	-23.790909	416.837206	-339.078455	87.766585	252.335595	-406.613812	221.905114	590.374999	-408.763026	184.373507	513.381232	-392.865348	113.681050	461.245938	-398.865447	204.713658	500.126834	-362.336343	154.171977	197.645297	-348.980813	-162.805689	856.824543	-230.612326	-50.428242	79.937667	-419.822896	-50.144483	79.549205	-22.187314	
2	0.0100	435.421914	1344.633217	-62.547710	457.107469	1355.982814	-392.184741	436.890950	1435.418142	-224.526627	455.219616	1265.308911	-215.937485	483.059850	1089.713905	17.029710	681.672022	943.774301	-44.605655	486.398552	1095.361708	-476.069302	676.111141	938.326300	-426.984929	-42.745192	1126.831240	-224.624168	140.952326	1100.222870	-390.747013	113.080326	1103.159683	-53.222888	154.926448	1034.696678	-359.108008	139.921274	1054.804273	-82.148568	-8.040282	1167.585429	-195.330783	-9.464292	1161.240097	-259.485794	71.511978	1047.921844	-20.113406	105.211554	1025.146288	-421.163593	176.176901	988.254369	-16.787888	265.880259	974.426892	-20.065830	333.820544	920.462350	-19.850273	277.286468	1005.161538	-40.605258	409.749611	840.435341	-41.869970	413.820265	814.872615	-152.382080	375.052865	721.184618	-18.304195	368.173913	636.100954	-39.455409	321.984689	562.545949	-44.410193	390.851987	633.373081	-71.702607	291.071676	487.830388	-50.670061	324.007432	491.384481	-143.018423	224.029699	474.235879	-100.729358	483.237293	380.677428	-109.511683	387.602691	387.443503	-36.615824	154.504514	912.454248	-430.412942	225.044998	861.743092	-420.824019	251.914232	884.262733	-406.896181	260.729978	780.398949	-412.677840	286.553347	672.772850	-383.684532	285.870862	653.954443	-267.839272	46.131216	393.289567	-384.795578	-23.734248	416.823112	-339.084183	87.786589	252.304092	-406.605491	221.926615	590.398223	-408.778416	184.405637	513.381727	-392.858429	113.725816	461.252362	-398.885493	204.736233	500.150236	-362.346093	154.174967	197.609480	-348.968965	-165.208559	862.631442	-237.254754	-50.427306	79.944558	-419.826600	-50.143842	79.558793	-22.176749	
3	0.0150	434.539245	1343.851849	-63.497325	457.043151	1355.947619	-392.595786	436.887676	1435.417067	-224.536629	455.145551	1265.274966	-216.000157	483.176104	1089.671862	16.987504	681.673742	943.778966	-44.602946	486.309042	1095.391030	-476.227180	676.219204	938.277514	-426.912812	-43.487954	1127.220196	-223.768791	140.944865	1100.239206	-390.712140	113.100175	1103.193835	-53.225608	154.905350	1034.706878	-359.064110	139.950352	1054.854603	-82.169551	-8.406026	1167.383350	-195.188110	-10.200007	1162.405558	-259.295147	71.519050	1047.937057	-20.105715	105.127502	1025.117802	-421.007549	176.728032	988.100149	-16.718420	265.877529	974.456407	-20.093204	333.751408	920.404584	-19.791277	277.088837	1005.069609	-41.075080	410.213301	840.367456	-41.698628	413.686216	814.518888	-151.743346	375.039494	721.243191	-18.337144	368.019038	635.944433	-39.674022	322.286972	562.425427	-44.333966	390.787360	633.171051	-71.659810	291.099012	487.792842	-50.640097	324.154752	491.304564	-143.106957	224.038060	474.272457	-100.733751	483.235124	380.683204	-109.520155	387.820786	387.322245	-36.694052	154.495362	912.495976	-430.408802	225.051347	861.787885	-420.812402	251.881203	884.233359	-406.792881	260.665841	780.388673	-412.667692	286.558603	672.799049	-383.682950	285.856125	654.012015	-267.831483	46.170339	393.277058	-384.795211	-23.684844	416.818687	-339.093396	87.794474	252.257022	-406.609726	221.954961	590.397467	-408.787003	184.387827	513.313441	-392.925100	113.256355	461.714485	-399.530572	204.497616	499.912183	-361.709164	154.060974	198.107718	-347.527720	-155.340923	856.713071	-224.994744	-50.419777	79.926756	-419.819892	-50.135471	79.540273	-22.191732	
